<?xml version="1.0" encoding="iso-8859-1"?>
<!-- Generator: Adobe Illustrator 19.0.0, SVG Export Plug-In . SVG Version: 6.00 Build 0)  -->
<svg version="1.1" id="Capa_1" xmlns="http://www.w3.org/2000/svg" xmlns:xlink="http://www.w3.org/1999/xlink" x="0px" y="0px"
	 viewBox="0 0 512 512" style="enable-background:new 0 0 512 512;" xml:space="preserve">
<circle style="fill:#FFD4B0;" cx="256" cy="42.667" r="34.133"/>
<path style="fill:#4DB5FF;" d="M201.267,290.714c-2.048,11.375,5.513,22.255,16.887,24.303c11.068,1.988,21.726-5.12,24.141-16.102
	L256,230.4l13.705,68.514c2.483,11.29,13.645,18.423,24.926,15.94c10.982-2.415,18.091-13.073,16.102-24.141l-20.599-102.98h-68.267
	L201.267,290.714z"/>
<path style="fill:#FFD4B0;" d="M366.933,102.4h-42.667v34.133h42.667c9.429,0,17.067-7.637,17.067-17.067
	S376.363,102.4,366.933,102.4z"/>
<polygon style="fill:#EF2648;" points="51.2,503.467 85.333,452.267 119.467,503.467 "/>
<g>
	<path style="fill:#FFDC13;" d="M8.533,503.467H51.2v-473.6c0-11.785-9.549-21.333-21.333-21.333l0,0
		c-11.785,0-21.333,9.549-21.333,21.333V503.467z"/>
	<path style="fill:#FFDC13;" d="M460.8,503.467h42.667v-473.6c0-11.785-9.549-21.333-21.333-21.333l0,0
		c-11.785,0-21.333,9.549-21.333,21.333V503.467z"/>
</g>
<path style="fill:#FFD4B0;" d="M145.067,102.4c-9.429,0-17.067,7.637-17.067,17.067s7.637,17.067,17.067,17.067h42.667V102.4
	H145.067z"/>
<polygon style="fill:#FFA511;" points="273.067,102.4 256,119.467 238.933,102.4 187.733,102.4 187.733,136.533 213.333,136.533 
	221.867,187.733 290.133,187.733 298.667,136.533 324.267,136.533 324.267,102.4 "/>
<path style="fill:#B20D24;" d="M64,494.933c-2.321,0-4.617-0.137-6.878-0.35l-5.922,8.883h68.267l-14.268-21.402
	C93.099,490.453,78.72,494.95,64,494.933z"/>
<polygon style="fill:#EF2648;" points="119.467,503.467 153.6,452.267 187.733,503.467 "/>
<path style="fill:#B20D24;" d="M132.267,494.933c-2.321,0-4.617-0.137-6.878-0.35l-5.922,8.883h68.267l-14.268-21.402
	C161.365,490.453,146.987,494.95,132.267,494.933z"/>
<polygon style="fill:#EF2648;" points="187.733,503.467 221.867,452.267 256,503.467 "/>
<path style="fill:#B20D24;" d="M200.533,494.933c-2.321,0-4.617-0.137-6.878-0.35l-5.922,8.883H256l-14.268-21.402
	C229.632,490.453,215.253,494.95,200.533,494.933z"/>
<polygon style="fill:#EF2648;" points="256,503.467 290.133,452.267 324.267,503.467 "/>
<path style="fill:#B20D24;" d="M268.8,494.933c-2.321,0-4.617-0.137-6.878-0.35L256,503.467h68.267l-14.268-21.402
	C297.899,490.453,283.52,494.95,268.8,494.933z"/>
<polygon style="fill:#EF2648;" points="324.267,503.467 358.4,452.267 392.533,503.467 "/>
<path style="fill:#B20D24;" d="M337.067,494.933c-2.321,0-4.617-0.137-6.878-0.35l-5.922,8.883h68.267l-14.268-21.402
	C366.165,490.453,351.787,494.95,337.067,494.933z"/>
<polygon style="fill:#EF2648;" points="392.533,503.467 426.667,452.267 460.8,503.467 "/>
<path style="fill:#B20D24;" d="M405.333,494.933c-2.321,0-4.617-0.137-6.878-0.35l-5.922,8.883H460.8l-14.268-21.402
	C434.432,490.453,420.053,494.95,405.333,494.933z"/>
<path style="fill:#3596D8;" d="M201.267,290.714c-2.048,11.375,5.513,22.255,16.887,24.303c11.068,1.988,21.726-5.12,24.141-16.102
	L256,230.4l13.705,68.514c2.483,11.29,13.645,18.423,24.926,15.94c10.982-2.415,18.091-13.073,16.102-24.141l-20.599-102.98h-0.307
	c-21.854,16.384-47.334,27.255-74.291,31.676L201.267,290.714z"/>
<g>
	<path style="fill:#EDC4A2;" d="M366.933,102.4h-16.367c-3.789,11.904-8.883,23.347-15.189,34.133h31.556
		c9.429,0,17.067-7.637,17.067-17.067S376.363,102.4,366.933,102.4z"/>
	<path style="fill:#EDC4A2;" d="M275.465,14.669c10.778,15.428,7.006,36.676-8.422,47.454c-11.725,8.192-27.315,8.192-39.04,0
		c10.667,15.539,31.915,19.499,47.454,8.832c15.539-10.667,19.499-31.915,8.832-47.454
		C281.916,20.036,278.921,17.041,275.465,14.669z"/>
</g>
<path d="M482.133,0c-16.495,0-29.867,13.372-29.867,29.867V307.2H316.851c2.671-5.658,3.456-12.023,2.244-18.167l-20.284-101.444
	l7.083-42.522h61.039c14.14,0,25.6-11.46,25.6-25.6s-11.46-25.6-25.6-25.6h-93.867c-2.261,0-4.437,0.896-6.033,2.5L256,107.401
	l-11.034-11.034c-1.596-1.604-3.772-2.5-6.033-2.5h-93.867c-14.14,0-25.6,11.46-25.6,25.6s11.46,25.6,25.6,25.6h61.039l7.083,42.522
	l-20.284,101.444c-1.212,6.144-0.427,12.51,2.244,18.167H59.733V29.867C59.733,13.372,46.362,0,29.867,0S0,13.372,0,29.867V512h512
	V29.867C512,13.372,498.628,0,482.133,0z M212.207,302.669c-2.347-2.859-3.285-6.613-2.56-10.24l20.582-102.989
	c0.205-1.015,0.222-2.057,0.051-3.072l-8.533-51.2c-0.666-4.13-4.233-7.159-8.414-7.168h-68.267c-4.71,0-8.533-3.823-8.533-8.533
	c0-4.71,3.823-8.533,8.533-8.533h90.334l14.566,14.566c3.328,3.328,8.738,3.328,12.066,0l14.566-14.566h90.334
	c4.71,0,8.533,3.823,8.533,8.533c0,4.71-3.823,8.533-8.533,8.533h-68.267c-4.173,0-7.731,3.021-8.414,7.134l-8.533,51.2
	c-0.171,1.015-0.154,2.057,0.051,3.072l20.591,102.98c1.195,6.741-3.302,13.167-10.035,14.362
	c-6.528,1.161-12.817-3.029-14.259-9.506l-13.705-68.548c-0.939-4.617-5.444-7.603-10.061-6.665
	c-3.362,0.683-5.982,3.302-6.665,6.665l-13.705,68.514c-1.348,6.707-7.876,11.059-14.583,9.711
	c-2.807-0.563-5.325-2.074-7.142-4.284L212.207,302.669z M263.612,307.2h-15.223c1.024-2.099,1.792-4.318,2.278-6.605L256,273.92
	l5.333,26.667C261.82,302.874,262.588,305.092,263.612,307.2z M17.067,494.933V29.867c0-7.066,5.734-12.8,12.8-12.8
	s12.8,5.734,12.8,12.8v465.067H17.067z M67.14,494.933l18.193-27.307l18.193,27.307H67.14z M135.407,494.933l18.193-27.307
	l18.193,27.307H135.407z M203.674,494.933l18.193-27.307l18.193,27.307H203.674z M271.94,494.933l18.193-27.307l18.193,27.307
	H271.94z M340.207,494.933l18.193-27.307l18.193,27.307H340.207z M408.474,494.933l18.193-27.307l18.193,27.307H408.474z
	 M426.667,436.907l-34.133,51.2l-34.133-51.2l-34.133,51.2l-34.133-51.2L256,488.107l-34.133-51.2l-34.133,51.2l-34.133-51.2
	l-34.133,51.2l-34.133-51.2l-25.6,38.4v-151.04h392.533v151.04L426.667,436.907z M494.933,494.933h-25.6V29.867
	c0-7.066,5.734-12.8,12.8-12.8s12.8,5.734,12.8,12.8V494.933z"/>
<path d="M213.333,42.667c0,23.561,19.106,42.667,42.667,42.667c23.561,0,42.667-19.106,42.667-42.667S279.561,0,256,0
	C232.448,0.026,213.359,19.115,213.333,42.667z M281.6,42.667c0,14.14-11.46,25.6-25.6,25.6c-14.14,0-25.6-11.46-25.6-25.6
	s11.46-25.6,25.6-25.6C270.14,17.067,281.6,28.527,281.6,42.667z"/>
<g>
</g>
<g>
</g>
<g>
</g>
<g>
</g>
<g>
</g>
<g>
</g>
<g>
</g>
<g>
</g>
<g>
</g>
<g>
</g>
<g>
</g>
<g>
</g>
<g>
</g>
<g>
</g>
<g>
</g>
</svg>
