<?xml version="1.0" encoding="utf-8"?>
<!-- Generator: Adobe Illustrator 22.0.1, SVG Export Plug-In . SVG Version: 6.00 Build 0)  -->
<svg version="1.1" id="Layer_1" xmlns="http://www.w3.org/2000/svg" xmlns:xlink="http://www.w3.org/1999/xlink" x="0px" y="0px"
	 viewBox="0 0 620.1 804.8" style="enable-background:new 0 0 620.1 804.8;" xml:space="preserve">
<style type="text/css">
	.st0{fill:#FF7F00;}
	.st1{fill:#FFFFFF;}
	.st2{fill:#FFD4B0;}
	.st3{fill:#4DB5FF;}
	.st4{fill:#EF2648;}
	.st5{fill:#FFDC13;}
	.st6{fill:#FFA511;}
	.st7{fill:#B20D24;}
	.st8{fill:#3596D8;}
	.st9{fill:#EDC4A2;}
</style>
<path class="st0" d="M617,310c0,169.5-312.4,491.9-312.4,491.9S3,479.5,3,310S140.4,3,310,3S617,140.4,617,310z"/>
<circle class="st1" cx="310" cy="302.2" r="266.8"/>
<circle class="st2" cx="306.2" cy="156.2" r="23.7"/>
<path class="st3" d="M268.1,328.5c-1.4,7.9,3.8,15.5,11.7,16.9c7.7,1.4,15.1-3.6,16.8-11.2l9.5-47.6l9.5,47.6
	c1.7,7.8,9.5,12.8,17.3,11.1c7.6-1.7,12.6-9.1,11.2-16.8l-14.3-71.5h-47.4L268.1,328.5z"/>
<path class="st2" d="M383.2,197.6h-29.6v23.7h29.6c6.5,0,11.9-5.3,11.9-11.9C395.1,203,389.8,197.6,383.2,197.6z"/>
<polygon class="st4" points="163.9,476.3 187.6,440.7 211.3,476.3 "/>
<g>
	<path class="st5" d="M134.3,476.3h29.6v-329c0-8.2-6.6-14.8-14.8-14.8l0,0c-8.2,0-14.8,6.6-14.8,14.8L134.3,476.3L134.3,476.3z"/>
	<path class="st5" d="M448.4,476.3h29.6v-329c0-8.2-6.6-14.8-14.8-14.8l0,0c-8.2,0-14.8,6.6-14.8,14.8L448.4,476.3L448.4,476.3z"/>
</g>
<path class="st2" d="M229.1,197.6c-6.5,0-11.9,5.3-11.9,11.9s5.3,11.9,11.9,11.9h29.6v-23.7H229.1z"/>
<polygon class="st6" points="318,197.6 306.2,209.5 294.3,197.6 258.7,197.6 258.7,221.4 276.5,221.4 282.5,256.9 329.9,256.9 
	335.8,221.4 353.6,221.4 353.6,197.6 "/>
<path class="st7" d="M172.8,470.3c-1.6,0-3.2-0.1-4.8-0.2l-4.1,6.2h47.4l-9.9-14.9C193,467.2,183,470.3,172.8,470.3z"/>
<polygon class="st4" points="211.3,476.3 235,440.7 258.7,476.3 "/>
<path class="st7" d="M220.2,470.3c-1.6,0-3.2-0.1-4.8-0.2l-4.1,6.2h47.4l-9.9-14.9C240.4,467.2,230.4,470.3,220.2,470.3z"/>
<polygon class="st4" points="258.7,476.3 282.5,440.7 306.2,476.3 "/>
<path class="st7" d="M267.6,470.3c-1.6,0-3.2-0.1-4.8-0.2l-4.1,6.2h47.4l-9.9-14.9C287.8,467.2,277.9,470.3,267.6,470.3z"/>
<polygon class="st4" points="306.2,476.3 329.9,440.7 353.6,476.3 "/>
<path class="st7" d="M315.1,470.3c-1.6,0-3.2-0.1-4.8-0.2l-4.1,6.2h47.4l-9.9-14.9C335.3,467.2,325.3,470.3,315.1,470.3z"/>
<polygon class="st4" points="353.6,476.3 377.3,440.7 401,476.3 "/>
<path class="st7" d="M362.5,470.3c-1.6,0-3.2-0.1-4.8-0.2l-4.1,6.2H401l-9.9-14.9C382.7,467.2,372.7,470.3,362.5,470.3z"/>
<polygon class="st4" points="401,476.3 424.7,440.7 448.4,476.3 "/>
<path class="st7" d="M409.9,470.3c-1.6,0-3.2-0.1-4.8-0.2l-4.1,6.2h47.4l-9.9-14.9C430.1,467.2,420.1,470.3,409.9,470.3z"/>
<path class="st8" d="M268.1,328.5c-1.4,7.9,3.8,15.5,11.7,16.9c7.7,1.4,15.1-3.6,16.8-11.2l9.5-47.6l9.5,47.6
	c1.7,7.8,9.5,12.8,17.3,11.1c7.6-1.7,12.6-9.1,11.2-16.8l-14.3-71.5h-0.2c-15.2,11.4-32.9,18.9-51.6,22L268.1,328.5z"/>
<g>
	<path class="st9" d="M383.2,197.6h-11.4c-2.6,8.3-6.2,16.2-10.6,23.7h21.9c6.5,0,11.9-5.3,11.9-11.9
		C395.1,203,389.8,197.6,383.2,197.6z"/>
	<path class="st9" d="M319.7,136.7c7.5,10.7,4.9,25.5-5.9,33c-8.1,5.7-19,5.7-27.1,0c7.4,10.8,22.2,13.5,33,6.1
		c10.8-7.4,13.5-22.2,6.1-33C324.2,140.4,322.1,138.4,319.7,136.7z"/>
</g>
<path d="M463.3,126.5c-11.5,0-20.7,9.3-20.7,20.7v192.7h-94.1c1.9-3.9,2.4-8.4,1.6-12.6l-14.1-70.5l4.9-29.5h42.4
	c9.8,0,17.8-8,17.8-17.8c0-9.8-8-17.8-17.8-17.8H318c-1.6,0-3.1,0.6-4.2,1.7l-7.7,7.7l-7.7-7.7c-1.1-1.1-2.6-1.7-4.2-1.7h-65.2
	c-9.8,0-17.8,8-17.8,17.8c0,9.8,8,17.8,17.8,17.8h42.4l4.9,29.5l-14.1,70.5c-0.8,4.3-0.3,8.7,1.6,12.6h-94.1V147.3
	c0-11.5-9.3-20.7-20.7-20.7c-11.5,0-20.7,9.3-20.7,20.7v334.9H484V147.3C484,135.8,474.7,126.5,463.3,126.5z M275.7,336.8
	c-1.6-2-2.3-4.6-1.8-7.1l14.3-71.5c0.1-0.7,0.2-1.4,0-2.1l-5.9-35.6c-0.5-2.9-2.9-5-5.8-5h-47.4c-3.3,0-5.9-2.7-5.9-5.9
	s2.7-5.9,5.9-5.9h62.8l10.1,10.1c2.3,2.3,6.1,2.3,8.4,0l10.1-10.1h62.8c3.3,0,5.9,2.7,5.9,5.9s-2.7,5.9-5.9,5.9h-47.4
	c-2.9,0-5.4,2.1-5.8,5L324,256c-0.1,0.7-0.1,1.4,0,2.1l14.3,71.5c0.8,4.7-2.3,9.1-7,10c-4.5,0.8-8.9-2.1-9.9-6.6l-9.5-47.6
	c-0.7-3.2-3.8-5.3-7-4.6c-2.3,0.5-4.2,2.3-4.6,4.6l-9.5,47.6c-0.9,4.7-5.5,7.7-10.1,6.7C278.8,339.3,277,338.3,275.7,336.8
	L275.7,336.8z M311.5,339.9h-10.6c0.7-1.5,1.2-3,1.6-4.6l3.7-18.5l3.7,18.5C310.2,336.9,310.7,338.5,311.5,339.9z M140.2,470.3
	V147.3c0-4.9,4-8.9,8.9-8.9c4.9,0,8.9,4,8.9,8.9v323.1L140.2,470.3L140.2,470.3z M175,470.3l12.6-19l12.6,19H175z M222.4,470.3
	l12.6-19l12.6,19H222.4z M269.8,470.3l12.6-19l12.6,19H269.8z M317.2,470.3l12.6-19l12.6,19H317.2z M364.7,470.3l12.6-19l12.6,19
	H364.7z M412.1,470.3l12.6-19l12.6,19H412.1z M424.7,430L401,465.6L377.3,430l-23.7,35.6L329.9,430l-23.7,35.6L282.5,430l-23.7,35.6
	L235,430l-23.7,35.6L187.6,430l-17.8,26.7V351.8h272.7v104.9L424.7,430z M472.1,470.3h-17.8V147.3c0-4.9,4-8.9,8.9-8.9
	s8.9,4,8.9,8.9L472.1,470.3L472.1,470.3z"/>
<path d="M276.5,156.2c0,16.4,13.3,29.6,29.6,29.6c16.4,0,29.6-13.3,29.6-29.6s-13.3-29.6-29.6-29.6
	C289.8,126.5,276.5,139.8,276.5,156.2z M323.9,156.2c0,9.8-8,17.8-17.8,17.8s-17.8-8-17.8-17.8s8-17.8,17.8-17.8
	S323.9,146.3,323.9,156.2z"/>
</svg>
