<?xml version="1.0" encoding="utf-8"?>
<!-- Generator: Adobe Illustrator 22.0.1, SVG Export Plug-In . SVG Version: 6.00 Build 0)  -->
<svg version="1.1" id="Layer_1" xmlns="http://www.w3.org/2000/svg" xmlns:xlink="http://www.w3.org/1999/xlink" x="0px" y="0px"
	 viewBox="0 0 620.1 804.8" style="enable-background:new 0 0 620.1 804.8;" xml:space="preserve">
<style type="text/css">
	.st0{fill:#B51C1C;}
	.st1{fill:#FFFFFF;}
	.st2{fill:#FFAA2A;}
	.st3{fill:#808080;}
	.st4{fill:#E6E6E6;}
</style>
<path class="st0" d="M617,310c0,169.5-312.4,491.9-312.4,491.9S3,479.5,3,310S140.4,3,310,3S617,140.4,617,310z"/>
<circle class="st1" cx="310" cy="302.2" r="266.8"/>
<path class="st2" d="M262.3,510.9l-1.6,3.6c-0.9,2-2.9,3.2-4.9,3.2c-0.7,0-1.5-0.2-2.2-0.5c-2.7-1.2-3.9-4.4-2.7-7.1l2.3-5.1
	c-2.6-1.2-5.2-2.1-7.7-2.8l-1.5,5.1c-0.7,2.3-2.8,3.9-5.2,3.9c-0.5,0-1-0.1-1.5-0.2c-2.9-0.9-4.5-3.9-3.6-6.7l1.1-3.6
	c-2.9-0.1-5.4,0-7.2,0.1c-2.3,8.5-2.3,16,0,21.6c2.2,5.4,6.4,9.1,12.4,11.1s11.6,1.4,16.5-1.6c4.6-2.8,8.5-7.9,11.5-14.7
	C266.1,514.6,264.3,512.6,262.3,510.9z"/>
<path class="st3" d="M258.8,365.9c0.7,0.2,1.3,0.3,2,0.3c3.3,0,6.2-2.2,7.1-5.3c0.5-1.9,0.3-3.9-0.6-5.6c-1-1.7-2.5-3-4.4-3.5
	c-0.7-0.2-1.3-0.3-2-0.3c-3.3,0-6.2,2.2-7.1,5.3C252.6,360.7,254.9,364.8,258.8,365.9z"/>
<g>
	<path class="st2" d="M257,432.5c-2-1-4.1-2.5-6.2-4.1l-19.9,61.3c2.1,0,4.4,0,6.9,0.3l1.7-5.7c0.9-2.9,3.9-4.5,6.7-3.6
		c2.9,0.9,4.5,3.9,3.6,6.7l-1.3,4.5c3,0.8,6.1,1.8,9.1,3.2l2.1-4.8c1.2-2.7,4.4-3.9,7.1-2.7c2.7,1.2,3.9,4.4,2.7,7.1l-2.7,5.9
		c1.8,1.3,3.4,2.9,5.1,4.5l20.1-61.6c-11.7-1.7-23.3-5.4-34.9-11C257.1,432.5,257,432.5,257,432.5z"/>
	<path class="st2" d="M242.7,269.8c-13.5,43.4-13.5,87.4,0,130.8c2.6,7.7,11.9,18.5,19.2,22.3c13.5,6.5,26.9,10.2,40.2,11v-14.5
		h-5.9c-3,0-5.4-2.4-5.4-5.4s2.4-5.4,5.4-5.4h5.9v-21.7h-5.9c-3,0-5.4-2.4-5.4-5.4s2.4-5.4,5.4-5.4h5.9v-21.7h-5.9
		c-3,0-5.4-2.4-5.4-5.4s2.4-5.4,5.4-5.4h5.9v-21.7h-5.9c-3,0-5.4-2.4-5.4-5.4s2.4-5.4,5.4-5.4h5.9v-21.7h-5.9c-3,0-5.4-2.4-5.4-5.4
		s2.4-5.4,5.4-5.4h5.9v-12.3c-17-0.9-32.9-6-46.4-14.1C249.9,257,244.5,264.3,242.7,269.8z M265.4,322.8c0.8-2.9,3.8-4.5,6.7-3.7
		c2.9,0.8,4.5,3.8,3.7,6.7l-5.1,17.9c2.4,1.6,4.5,3.7,5.9,6.4c2.4,4.2,2.9,9.1,1.6,13.8c-2.2,7.8-9.4,13.2-17.4,13.2
		c-1.7,0-3.3-0.2-5-0.7c-9.6-2.7-15.2-12.8-12.5-22.4c2.2-7.6,9.1-13,17-13.2L265.4,322.8z"/>
</g>
<path class="st3" d="M257.1,69.5c-1.3-2.4-3.8-3.9-6.5-3.9c-1.2,0-2.4,0.3-3.4,0.9c-3.6,1.9-4.9,6.3-3,9.9c1.3,2.4,3.8,3.9,6.5,3.9
	c1.2,0,2.4-0.3,3.4-0.9c1.7-0.9,3-2.5,3.6-4.3C258.2,73.2,258,71.2,257.1,69.5z"/>
<path class="st4" d="M348.9,193.3c12.4,0,22.5-10.1,22.5-22.5s-10.1-22.5-22.5-22.5s-22.5,10.1-22.5,22.5S336.5,193.3,348.9,193.3z
	 M335.5,165c-2.1-2.1-2.1-5.5,0-7.6s5.5-2.1,7.6,0l5.7,5.7l5.7-5.7c2.1-2.1,5.5-2.1,7.6,0s2.1,5.5,0,7.6l-5.7,5.7l5.7,5.7
	c2.1,2.1,2.1,5.5,0,7.6c-1.1,1.1-2.4,1.6-3.8,1.6s-2.8-0.5-3.8-1.6l-5.7-5.7l-5.7,5.7c-1.1,1.1-2.4,1.6-3.8,1.6s-2.8-0.5-3.8-1.6
	c-2.1-2.1-2.1-5.5,0-7.6l5.7-5.7L335.5,165z"/>
<g>
	<path class="st2" d="M182.3,285.4c1.4,1.7,2.9,3.7,4.2,5.8l4.9-1.9c2.8-1.1,5.9,0.3,7,3.1c1.1,2.8-0.3,5.9-3.1,7l-3.8,1.5
		c1,2.6,1.9,5.3,2.5,8.1l2.5-1c2.8-1.1,5.9,0.3,7,3.1c1.1,2.8-0.3,5.9-3.1,7l-5.3,2.1c0,2.5-0.3,5.2-0.8,7.8l28.2-11.6
		c1.4-16.6,4.7-33.2,9.8-49.7v-0.1c0.2-0.7,0.5-1.4,0.8-2.1L182.3,285.4z"/>
	<path class="st2" d="M181.2,325.1c-2.2,0-4.2-1.3-5-3.4c-1.1-2.8,0.3-5.9,3.1-7l4.6-1.8c-0.5-2.9-1.4-5.7-2.4-8.2l-3.4,1.3
		c-0.6,0.3-1.3,0.4-2,0.4c-2.2,0-4.2-1.3-5-3.4c-1.1-2.8,0.3-5.9,3.1-7l2-0.8c-1.6-2.3-3.2-4.1-4.4-5.4c-8,3.8-13.6,8.6-16.4,14
		c-2.7,5.2-2.8,10.7-0.4,16.6c2.4,5.9,6.5,9.8,12,11.5c4.3,1.4,9.5,1.4,15.3,0.1c0.9-2.6,1.5-5.2,1.9-7.7l-0.9,0.4
		C182.5,325,181.8,325.1,181.2,325.1z"/>
</g>
<path class="st3" d="M408.8,118.2c1.7,0,3.2-0.5,4.5-1.6c3.2-2.5,3.7-7.1,1.2-10.3c-1.4-1.8-3.5-2.8-5.8-2.8c-1.7,0-3.2,0.5-4.5,1.6
	c-1.5,1.2-2.5,3-2.7,4.9s0.3,3.9,1.5,5.4C404.4,117.2,406.5,118.2,408.8,118.2z"/>
<g>
	<path class="st2" d="M393.1,175.5c0-44.1-38.4-79.9-85.6-79.9c-12.5,0-24.4,2.5-35.1,7l7.2,13.6c1.4,2.6,0.4,5.9-2.2,7.3
		c-0.8,0.4-1.7,0.6-2.5,0.6c-1.9,0-3.8-1-4.8-2.9l-7.3-13.8c-24.5,14.1-40.9,39.3-40.9,68.1c0,44.1,38.4,79.9,85.6,79.9
		S393.1,219.6,393.1,175.5z M348.9,137.4c18.4,0,33.3,15,33.3,33.3c0,18.4-15,33.3-33.3,33.3c-18.4,0-33.3-15-33.3-33.3
		C315.5,152.4,330.5,137.4,348.9,137.4z M249.9,179.3l8.6-8.6l-8.6-8.6c-2.1-2.1-2.1-5.5,0-7.6s5.5-2.1,7.6,0l8.6,8.6l8.6-8.6
		c2.1-2.1,5.5-2.1,7.6,0s2.1,5.5,0,7.6l-8.6,8.6l8.6,8.6c2.1,2.1,2.1,5.5,0,7.6c-1.1,1.1-2.4,1.6-3.8,1.6s-2.8-0.5-3.8-1.6l-8.6-8.6
		l-8.6,8.6c-1.1,1.1-2.4,1.6-3.8,1.6s-2.8-0.5-3.8-1.6C247.8,184.8,247.8,181.4,249.9,179.3z M360.7,235.4c-0.9,0.7-2,1-3.1,1
		c-1.7,0-3.4-0.8-4.4-2.3l-2.6-3.8c-3.7,1.9-7.9,3.5-12.3,4.9l1.2,3.6c1,2.8-0.6,5.9-3.4,6.8c-0.6,0.2-1.2,0.3-1.7,0.3
		c-2.3,0-4.4-1.4-5.1-3.7l-1.5-4.5c-4.7,0.9-9.7,1.4-14.8,1.6v3.5c0,3-2.4,5.4-5.4,5.4s-5.4-2.4-5.4-5.4v-3.5
		c-5.1-0.2-10-0.8-14.8-1.6l-1.5,4.5c-0.8,2.3-2.9,3.7-5.1,3.7c-0.6,0-1.2-0.1-1.7-0.3c-2.8-1-4.3-4-3.4-6.8l1.2-3.6
		c-4.5-1.3-8.6-3-12.3-4.9l-2.6,3.8c-1,1.5-2.7,2.3-4.4,2.3c-1.1,0-2.1-0.3-3.1-1c-2.5-1.7-3.1-5.1-1.4-7.5l2.4-3.5
		c-1.9-1.9-2.2-5-0.4-7.2c1.6-2,4.3-2.6,6.5-1.5l2.9-4.2c1.7-2.5,5.1-3.1,7.5-1.4c2.5,1.7,3.1,5.1,1.4,7.5l-2.5,3.6
		c2.9,1.4,6.1,2.6,9.6,3.6l1.7-5.1c1-2.8,4-4.3,6.8-3.4c2.8,1,4.3,4,3.4,6.8l-1.4,4c3.6,0.6,7.4,1,11.3,1.2v-5.7
		c0-3,2.4-5.4,5.4-5.4s5.4,2.4,5.4,5.4v5.7c3.9-0.2,7.6-0.6,11.3-1.2l-1.4-4c-1-2.8,0.6-5.9,3.4-6.8c2.8-1,5.9,0.6,6.8,3.4l1.7,5.1
		c3.4-1,6.7-2.2,9.6-3.6l-2.5-3.6c-1.7-2.5-1.1-5.8,1.4-7.5s5.8-1.1,7.5,1.4l2.9,4.2c2.2-1,4.9-0.5,6.5,1.5c1.7,2.2,1.5,5.3-0.4,7.2
		l2.4,3.5C363.8,230.3,363.2,233.7,360.7,235.4z"/>
	<path class="st2" d="M359.3,252c-13.6,8.2-29.4,13.2-46.4,14.1v12.3h5.9c3,0,5.4,2.4,5.4,5.4s-2.4,5.4-5.4,5.4h-5.9v21.7h5.9
		c3,0,5.4,2.4,5.4,5.4s-2.4,5.4-5.4,5.4h-5.9v21.8h5.9c3,0,5.4,2.4,5.4,5.4s-2.4,5.4-5.4,5.4h-5.9V376h5.9c3,0,5.4,2.4,5.4,5.4
		s-2.4,5.4-5.4,5.4h-5.9v21.7h5.9c3,0,5.4,2.4,5.4,5.4s-2.4,5.4-5.4,5.4h-5.9v14.5c13.3-0.8,26.7-4.4,40.2-11
		c7.3-3.8,16.6-14.6,19.2-22.3c13.5-43.4,13.5-87.4,0-130.8C370.5,264.3,365.1,257,359.3,252z"/>
	<path class="st2" d="M380.4,500.5l1.1,3.6c0.9,2.9-0.8,5.9-3.6,6.7c-0.5,0.2-1,0.2-1.5,0.2c-2.3,0-4.5-1.5-5.2-3.9l-1.5-5.1
		c-2.5,0.7-5.1,1.6-7.7,2.8l2.3,5.1c1.2,2.7,0,5.9-2.7,7.1c-0.7,0.3-1.5,0.5-2.2,0.5c-2.1,0-4-1.2-4.9-3.2l-1.6-3.6
		c-2,1.7-3.8,3.8-5.5,6.1c3,6.8,7,11.9,11.5,14.7c4.9,3.1,10.5,3.6,16.5,1.6c6.1-2,10.2-5.7,12.4-11.1c2.3-5.6,2.3-13,0-21.6
		C385.8,500.5,383.3,500.4,380.4,500.5z"/>
	<path class="st2" d="M381.8,264.3c0.3,0.7,0.6,1.4,0.8,2.1v0.1c5.1,16.5,8.4,33.1,9.8,49.7l28.2,11.6c-0.5-2.7-0.7-5.3-0.8-7.8
		l-5.3-2.1c-2.8-1.1-4.2-4.2-3.1-7s4.2-4.2,7-3.1l2.5,1c0.6-2.8,1.5-5.6,2.5-8.1l-3.9-1.5c-2.8-1.1-4.2-4.2-3.1-7s4.2-4.2,7-3.1
		l4.9,1.9c1.4-2.1,2.8-4.1,4.2-5.8L381.8,264.3z"/>
	<path class="st2" d="M358,432.5c0,0-0.1,0-0.1,0.1c-11.6,5.6-23.3,9.3-35,11l20.1,61.6c1.6-1.7,3.3-3.2,5.1-4.5l-2.7-5.9
		c-1.2-2.7,0-5.9,2.7-7.1s5.9,0,7.1,2.7l2.1,4.8c3-1.4,6.1-2.5,9.1-3.2l-1.3-4.5c-0.9-2.9,0.8-5.9,3.6-6.7c2.9-0.9,5.9,0.8,6.7,3.6
		l1.7,5.7c2.5-0.2,4.9-0.3,6.9-0.3l-19.9-61.3C362.1,430.1,360,431.5,358,432.5z"/>
	<path class="st2" d="M443.3,289.8c-1.2,1.3-2.8,3.1-4.5,5.3l2.1,0.8c2.8,1.1,4.2,4.2,3.1,7c-0.8,2.1-2.9,3.4-5,3.4
		c-0.7,0-1.3-0.1-2-0.4l-3.5-1.4c-1,2.5-1.9,5.2-2.4,8.2l4.7,1.8c2.8,1.1,4.2,4.2,3.1,7c-0.8,2.1-2.9,3.4-5,3.4
		c-0.7,0-1.3-0.1-2-0.4l-0.9-0.4c0.3,2.5,1,5,1.9,7.7c5.8,1.3,11,1.3,15.3-0.1c5.5-1.8,9.6-5.6,12-11.5s2.3-11.5-0.4-16.6
		C457,298.4,451.3,293.6,443.3,289.8z"/>
</g>
<path d="M282.3,162.2c2.1-2.1,2.1-5.5,0-7.6s-5.5-2.1-7.6,0l-8.6,8.6l7.6,7.6L282.3,162.2z"/>
<path d="M257.6,187l8.6-8.6l-7.6-7.6l-8.6,8.6c-2.1,2.1-2.1,5.5,0,7.6c1.1,1.1,2.4,1.6,3.8,1.6S256.5,188,257.6,187z"/>
<path d="M274.7,187c1.1,1.1,2.4,1.6,3.8,1.6s2.8-0.5,3.8-1.6c2.1-2.1,2.1-5.5,0-7.6l-8.6-8.6l-7.6-7.6l-8.6-8.6
	c-2.1-2.1-5.5-2.1-7.6,0s-2.1,5.5,0,7.6l8.6,8.6l7.6,7.6L274.7,187z"/>
<path d="M348.9,204.1c18.4,0,33.3-15,33.3-33.3c0-18.4-15-33.3-33.3-33.3c-18.4,0-33.3,15-33.3,33.3
	C315.5,189.1,330.5,204.1,348.9,204.1z M348.9,148.2c12.4,0,22.5,10.1,22.5,22.5s-10.1,22.5-22.5,22.5s-22.5-10.1-22.5-22.5
	S336.5,148.2,348.9,148.2z"/>
<path d="M335.5,184.1c1.1,1.1,2.4,1.6,3.8,1.6s2.8-0.5,3.8-1.6l5.7-5.7l5.7,5.7c1.1,1.1,2.4,1.6,3.8,1.6s2.8-0.5,3.8-1.6
	c2.1-2.1,2.1-5.5,0-7.6l-5.7-5.7l5.7-5.7c2.1-2.1,2.1-5.5,0-7.6s-5.5-2.1-7.6,0l-5.7,5.7l-5.7-5.7c-2.1-2.1-5.5-2.1-7.6,0
	s-2.1,5.5,0,7.6l5.7,5.7l-5.7,5.7C333.4,178.6,333.4,182,335.5,184.1z"/>
<path d="M359.7,224.3c1.9-1.9,2.2-5,0.4-7.2c-1.6-2-4.3-2.6-6.5-1.5l-2.9-4.2c-1.7-2.5-5.1-3.1-7.5-1.4c-2.5,1.7-3.1,5.1-1.4,7.5
	l2.5,3.6c-2.9,1.4-6.1,2.6-9.6,3.6l-1.7-5.1c-1-2.8-4-4.3-6.8-3.4c-2.8,1-4.3,4-3.4,6.8l1.4,4c-3.6,0.6-7.4,1-11.3,1.2v-5.7
	c0-3-2.4-5.4-5.4-5.4s-5.4,2.4-5.4,5.4v5.7c-3.9-0.2-7.6-0.6-11.3-1.2l1.4-4c1-2.8-0.6-5.9-3.4-6.8c-2.8-1-5.9,0.6-6.8,3.4l-1.7,5.1
	c-3.4-1-6.7-2.2-9.6-3.6l2.5-3.6c1.7-2.5,1.1-5.8-1.4-7.5s-5.8-1.1-7.5,1.4l-2.9,4.2c-2.2-1-4.9-0.4-6.5,1.5
	c-1.7,2.2-1.5,5.3,0.4,7.2l-2.4,3.5c-1.7,2.5-1.1,5.8,1.4,7.5c0.9,0.7,2,1,3.1,1c1.7,0,3.4-0.8,4.4-2.3l2.6-3.8
	c3.7,1.9,7.9,3.5,12.3,4.9l-1.2,3.6c-1,2.8,0.6,5.9,3.4,6.8c0.6,0.2,1.2,0.3,1.7,0.3c2.3,0,4.4-1.4,5.1-3.7l1.5-4.5
	c4.7,0.9,9.7,1.4,14.8,1.6v3.5c0,3,2.4,5.4,5.4,5.4s5.4-2.4,5.4-5.4v-3.5c5.1-0.2,10-0.8,14.8-1.6l1.5,4.5c0.8,2.3,2.9,3.7,5.1,3.7
	c0.6,0,1.2-0.1,1.7-0.3c2.8-1,4.3-4,3.4-6.8l-1.2-3.6c4.5-1.3,8.6-3,12.3-4.9l2.6,3.8c1,1.5,2.7,2.3,4.4,2.3c1.1,0,2.1-0.3,3.1-1
	c2.5-1.7,3.1-5.1,1.4-7.5L359.7,224.3z"/>
<path d="M243.3,353.9c-2.7,9.6,2.9,19.7,12.5,22.4c1.6,0.5,3.3,0.7,5,0.7c8.1,0,15.2-5.4,17.4-13.2c1.3-4.7,0.8-9.6-1.6-13.8
	c-1.5-2.6-3.5-4.8-5.9-6.4l5.1-17.9c0.8-2.9-0.8-5.9-3.7-6.7c-2.9-0.8-5.9,0.8-6.7,3.7l-5.1,17.9
	C252.5,340.9,245.5,346.2,243.3,353.9z M253.7,356.8c0.9-3.1,3.8-5.3,7.1-5.3c0.7,0,1.4,0.1,2,0.3c1.9,0.5,3.5,1.8,4.4,3.5
	c1,1.7,1.2,3.7,0.6,5.6c-0.9,3.1-3.8,5.3-7.1,5.3c-0.7,0-1.4-0.1-2-0.3C254.9,364.8,252.6,360.7,253.7,356.8z"/>
<path d="M444.3,278.4l-73.4-30.3c-0.8-0.8-1.6-1.6-2.4-2.4c21.6-16.7,35.4-41.9,35.4-70.2c0-16.1-4.5-31.2-12.3-44.3l6.9-5.4
	c3,2,6.5,3.2,10.2,3.2c4.1,0,8-1.4,11.2-3.9c7.9-6.2,9.2-17.6,3-25.5c-3.5-4.4-8.7-6.9-14.3-6.9c-4.1,0-8,1.4-11.2,3.9
	c-3.8,3-6.2,7.3-6.8,12.1c-0.3,3,0,5.9,1.1,8.6l-6.3,4.9c-17.5-22.7-46-37.5-78-37.5c-14.3,0-27.9,3-40.1,8.3l-3.9-7.3
	c2-2.1,3.6-4.6,4.5-7.4c1.4-4.6,1-9.5-1.3-13.8c-3.2-6-9.3-9.7-16-9.7c-2.9,0-5.9,0.7-8.5,2.1c-8.8,4.7-12.2,15.7-7.5,24.5
	c3.2,6,9.3,9.7,16,9.7c1.1,0,2.2-0.1,3.3-0.3l3.8,7.1c-27.9,15.9-46.6,44.7-46.6,77.6c0,28.3,13.8,53.6,35.4,70.2
	c-0.8,0.8-1.6,1.6-2.4,2.4l-73.4,30.3c-12.2,5-20.6,11.9-25.1,20.4c-4.1,8-4.4,16.9-0.8,25.7c3.6,8.8,10.1,15,18.7,17.7
	c3.3,1.1,6.9,1.6,10.6,1.6c6.5,0,13.7-1.6,21.5-4.8l26.2-10.8c-0.8,25.3,2.7,50.5,10.5,75.6v0.1c1.7,5.1,5.3,10.9,9.7,16.1l-24.1,74
	c-4.1,12.6-4.3,23.4-0.7,32.3c3.4,8.3,10,14.3,19.1,17.3c3.5,1.1,6.9,1.7,10.2,1.7c5.4,0,10.6-1.5,15.4-4.4c8.1-5,14.3-14,18.4-26.5
	l22.7-69.7c1.5,0.1,2.9,0.1,4.4,0.1s2.9,0,4.4-0.1l22.7,69.7c4.1,12.6,10.3,21.5,18.4,26.5c4.7,2.9,9.9,4.4,15.4,4.4
	c3.3,0,6.8-0.6,10.2-1.7c9.1-3,15.7-8.9,19.1-17.3c3.6-8.9,3.4-19.7-0.7-32.3l-24.1-74c4.4-5.1,8-10.9,9.7-16.1v-0.1
	c7.8-25.1,11.3-50.4,10.5-75.6l26.2,10.8c7.8,3.2,14.9,4.8,21.5,4.8c3.8,0,7.3-0.5,10.6-1.6c8.6-2.7,15-8.9,18.7-17.7
	c3.6-8.8,3.4-17.7-0.8-25.7C465,290.3,456.5,283.5,444.3,278.4z M401.5,110c0.2-1.9,1.2-3.7,2.7-4.9c1.3-1,2.9-1.6,4.5-1.6
	c2.3,0,4.4,1,5.8,2.8c2.5,3.2,2,7.8-1.2,10.3c-1.3,1-2.9,1.6-4.5,1.6c-2.3,0-4.4-1-5.8-2.8C401.8,113.9,401.2,111.9,401.5,110z
	 M257.6,75.1c-0.6,1.9-1.8,3.4-3.6,4.3c-1.1,0.6-2.2,0.9-3.4,0.9c-2.7,0-5.2-1.5-6.5-3.9c-1.9-3.6-0.5-8,3-9.9
	c1.1-0.6,2.2-0.9,3.4-0.9c2.7,0,5.2,1.5,6.5,3.9C258,71.2,258.2,73.2,257.6,75.1z M182.2,332.1c-5.8,1.3-11,1.3-15.3-0.1
	c-5.5-1.8-9.6-5.6-12-11.5s-2.3-11.5,0.4-16.6c2.8-5.4,8.4-10.2,16.4-14c1.2,1.3,2.8,3.1,4.4,5.4l-2,0.8c-2.8,1.1-4.2,4.2-3.1,7
	c0.8,2.1,2.9,3.4,5,3.4c0.7,0,1.3-0.1,2-0.4l3.4-1.3c1,2.5,1.9,5.2,2.4,8.2l-4.6,1.8c-2.8,1.1-4.2,4.2-3.1,7c0.8,2.1,2.9,3.4,5,3.4
	c0.7,0,1.3-0.1,2-0.4l0.9-0.4C183.7,326.9,183.1,329.4,182.2,332.1z M232.4,266.4v0.1c-5.1,16.5-8.4,33.1-9.8,49.7l-28.2,11.6
	c0.5-2.7,0.7-5.3,0.8-7.8l5.3-2.1c2.8-1.1,4.2-4.2,3.1-7c-1.1-2.8-4.2-4.2-7-3.1l-2.5,1c-0.6-2.8-1.5-5.6-2.5-8.1l3.8-1.5
	c2.8-1.1,4.2-4.2,3.1-7c-1.1-2.8-4.2-4.2-7-3.1l-4.9,1.9c-1.4-2.1-2.8-4.1-4.2-5.8l51-21C232.9,265,232.7,265.7,232.4,266.4z
	 M256.3,531.6c-4.9,3.1-10.5,3.6-16.5,1.6s-10.2-5.7-12.4-11.1c-2.3-5.6-2.3-13,0-21.6c1.8-0.1,4.3-0.2,7.2-0.1l-1.1,3.6
	c-0.9,2.9,0.8,5.9,3.6,6.7c0.5,0.2,1,0.2,1.5,0.2c2.3,0,4.5-1.5,5.2-3.9l1.5-5.1c2.5,0.7,5.1,1.6,7.7,2.8l-2.3,5.1
	c-1.2,2.7,0,5.9,2.7,7.1c0.7,0.3,1.5,0.5,2.2,0.5c2.1,0,4-1.2,4.9-3.2l1.6-3.6c2,1.7,3.8,3.8,5.5,6.1
	C264.8,523.8,260.9,528.8,256.3,531.6z M272,505.2c-1.6-1.7-3.3-3.2-5.1-4.5l2.7-5.9c1.2-2.7,0-5.9-2.7-7.1s-5.9,0-7.1,2.7l-2.1,4.8
	c-3-1.4-6.1-2.5-9.1-3.2l1.3-4.5c0.9-2.9-0.8-5.9-3.6-6.7s-5.9,0.8-6.7,3.6l-1.7,5.7c-2.5-0.2-4.9-0.3-6.9-0.3l19.9-61.3
	c2.1,1.6,4.2,3,6.2,4.1c0,0,0.1,0,0.1,0.1c11.6,5.6,23.3,9.3,34.9,11L272,505.2z M302.1,278.4h-5.9c-3,0-5.4,2.4-5.4,5.4
	s2.4,5.4,5.4,5.4h5.9v21.7h-5.9c-3,0-5.4,2.4-5.4,5.4s2.4,5.4,5.4,5.4h5.9v21.8h-5.9c-3,0-5.4,2.4-5.4,5.4s2.4,5.4,5.4,5.4h5.9V376
	h-5.9c-3,0-5.4,2.4-5.4,5.4s2.4,5.4,5.4,5.4h5.9v21.7h-5.9c-3,0-5.4,2.4-5.4,5.4s2.4,5.4,5.4,5.4h5.9v14.5
	c-13.3-0.8-26.7-4.4-40.2-11c-7.3-3.8-16.6-14.6-19.2-22.3c-13.5-43.4-13.5-87.4,0-130.8c1.8-5.5,7.2-12.8,13-17.8
	c13.6,8.2,29.4,13.3,46.4,14.1L302.1,278.4L302.1,278.4z M307.5,255.4c-47.2,0-85.6-35.9-85.6-79.9c0-28.8,16.4-54,40.9-68.1
	l7.3,13.8c1,1.8,2.8,2.9,4.8,2.9c0.9,0,1.7-0.2,2.5-0.6c2.6-1.4,3.6-4.7,2.2-7.3l-7.2-13.6c10.7-4.5,22.6-7,35.1-7
	c47.2,0,85.6,35.9,85.6,79.9C393.1,219.6,354.7,255.4,307.5,255.4z M387.7,522.2c-2.2,5.4-6.4,9.1-12.4,11.1s-11.6,1.4-16.5-1.6
	c-4.6-2.8-8.5-7.9-11.5-14.7c1.7-2.3,3.6-4.4,5.5-6.1l1.6,3.6c0.9,2,2.9,3.2,4.9,3.2c0.7,0,1.5-0.2,2.2-0.5c2.7-1.2,3.9-4.4,2.7-7.1
	l-2.3-5.1c2.6-1.2,5.2-2.1,7.7-2.8l1.5,5.1c0.7,2.3,2.8,3.9,5.2,3.9c0.5,0,1-0.1,1.5-0.2c2.9-0.9,4.5-3.9,3.6-6.7l-1.1-3.6
	c2.9-0.1,5.4,0,7.2,0.1C389.9,509.2,390,516.6,387.7,522.2z M384.2,489.7c-2.1,0-4.4,0-6.9,0.3l-1.7-5.7c-0.9-2.9-3.9-4.5-6.7-3.6
	c-2.9,0.9-4.5,3.9-3.6,6.7l1.3,4.5c-3,0.8-6.1,1.8-9.1,3.2l-2.1-4.8c-1.2-2.7-4.4-3.9-7.1-2.7c-2.7,1.2-3.9,4.4-2.7,7.1l2.7,5.9
	c-1.8,1.3-3.5,2.9-5.1,4.5l-20.1-61.6c11.7-1.7,23.3-5.4,35-11c0,0,0.1,0,0.1-0.1c2-1,4.1-2.4,6.2-4.1L384.2,489.7z M372.3,400.6
	c-2.6,7.7-11.9,18.5-19.2,22.3c-13.5,6.5-26.9,10.2-40.2,11v-14.5h5.9c3,0,5.4-2.4,5.4-5.4s-2.4-5.4-5.4-5.4h-5.9v-21.7h5.9
	c3,0,5.4-2.4,5.4-5.4s-2.4-5.4-5.4-5.4h-5.9v-21.7h5.9c3,0,5.4-2.4,5.4-5.4s-2.4-5.4-5.4-5.4h-5.9v-21.7h5.9c3,0,5.4-2.4,5.4-5.4
	s-2.4-5.4-5.4-5.4h-5.9v-21.7h5.9c3,0,5.4-2.4,5.4-5.4s-2.4-5.4-5.4-5.4h-5.9v-12.3c17-0.9,32.9-6,46.4-14.1
	c5.7,5.1,11.1,12.4,13,17.8C385.8,313.2,385.8,357.2,372.3,400.6z M423.6,289.2c-2.8-1.1-5.9,0.3-7,3.1c-1.1,2.8,0.3,5.9,3.1,7
	l3.9,1.5c-1,2.6-1.9,5.3-2.5,8.1l-2.5-1c-2.8-1.1-5.9,0.3-7,3.1c-1.1,2.8,0.3,5.9,3.1,7l5.3,2.1c0,2.5,0.3,5.2,0.8,7.8l-28.2-11.6
	c-1.4-16.6-4.7-33.2-9.8-49.7v-0.1c-0.2-0.7-0.5-1.4-0.8-2.1l51,21c-1.4,1.7-2.9,3.7-4.2,5.8L423.6,289.2z M460.1,320.4
	c-2.4,5.9-6.5,9.8-12,11.5c-4.3,1.4-9.5,1.4-15.3,0.1c-0.9-2.6-1.5-5.2-1.9-7.7l0.9,0.4c0.6,0.3,1.3,0.4,2,0.4c2.2,0,4.2-1.3,5-3.4
	c1.1-2.8-0.3-5.9-3.1-7l-4.7-1.8c0.5-2.9,1.3-5.7,2.4-8.2l3.5,1.4c0.6,0.3,1.3,0.4,2,0.4c2.2,0,4.2-1.3,5-3.4c1.1-2.8-0.3-5.9-3.1-7
	l-2.1-0.8c1.6-2.3,3.2-4.1,4.5-5.3c8,3.8,13.6,8.6,16.4,14C462.4,309,462.6,314.5,460.1,320.4z"/>
</svg>
