<?xml version="1.0" encoding="iso-8859-1"?>
<!-- Generator: Adobe Illustrator 19.0.0, SVG Export Plug-In . SVG Version: 6.00 Build 0)  -->
<svg version="1.1" id="Capa_1" xmlns="http://www.w3.org/2000/svg" xmlns:xlink="http://www.w3.org/1999/xlink" x="0px" y="0px"
	 viewBox="0 0 512 512" style="enable-background:new 0 0 512 512;" xml:space="preserve">
<circle style="fill:#FFCA28;" cx="256" cy="256" r="256"/>
<path style="fill:#FAFAFA;" d="M294.688,74.304c-4.029,3.022-6.4,7.764-6.4,12.8V425.6c-0.015,8.837,7.136,16.012,15.973,16.027
	c1.481,0.003,2.954-0.2,4.379-0.603c102-28.985,161.191-135.169,132.206-237.17C422.66,139.856,372.638,89.834,308.64,71.648
	C303.83,70.308,298.669,71.29,294.688,74.304z"/>
<path d="M256,512C114.615,512,0,397.385,0,256S114.615,0,256,0s256,114.615,256,256C511.841,397.319,397.319,511.841,256,512z
	 M256,32C132.288,32,32,132.288,32,256s100.288,224,224,224s224-100.288,224-224C479.859,132.347,379.653,32.141,256,32z"/>
<path d="M192,224c-35.346,0-64-28.654-64-64s28.654-64,64-64c8.837,0,16,7.163,16,16s-7.163,16-16,16c-17.673,0-32,14.327-32,32
	s14.327,32,32,32c8.837,0,16,7.163,16,16S200.837,224,192,224z"/>
<path d="M192,416c-35.346,0-64-28.654-64-64s28.654-64,64-64c8.837,0,16,7.163,16,16s-7.163,16-16,16c-17.673,0-32,14.327-32,32
	s14.327,32,32,32c8.837,0,16,7.163,16,16S200.837,416,192,416z"/>
<path d="M304,441.28c-8.837,0-16-7.163-16-16V86.72c0-5.036,2.371-9.778,6.4-12.8c3.997-3.034,9.186-4.018,14.016-2.656
	c101.992,29.016,161.15,135.219,132.134,237.21c-18.194,63.953-68.181,113.94-132.134,132.134
	C306.983,441.041,305.496,441.267,304,441.28z M320,109.376v293.248c80.978-35.37,117.951-129.688,82.582-210.666
	C386.443,155.009,356.949,125.515,320,109.376z"/>
<g>
</g>
<g>
</g>
<g>
</g>
<g>
</g>
<g>
</g>
<g>
</g>
<g>
</g>
<g>
</g>
<g>
</g>
<g>
</g>
<g>
</g>
<g>
</g>
<g>
</g>
<g>
</g>
<g>
</g>
</svg>
