<?xml version="1.0" encoding="utf-8"?>
<!-- Generator: Adobe Illustrator 22.0.1, SVG Export Plug-In . SVG Version: 6.00 Build 0)  -->
<svg version="1.1" id="Layer_1" xmlns="http://www.w3.org/2000/svg" xmlns:xlink="http://www.w3.org/1999/xlink" x="0px" y="0px"
	 viewBox="0 0 620.1 804.8" style="enable-background:new 0 0 620.1 804.8;" xml:space="preserve">
<style type="text/css">
	.st0{fill:#FFCA28;}
	.st1{fill:#FFFFFF;}
	.st2{fill:#FAFAFA;}
</style>
<path class="st0" d="M617,310c0,169.5-312.4,491.9-312.4,491.9S3,479.5,3,310S140.4,3,310,3S617,140.4,617,310z"/>
<circle class="st1" cx="310" cy="302.2" r="266.8"/>
<circle class="st0" cx="310" cy="302.2" r="214"/>
<path class="st2" d="M342.3,150.3c-3.4,2.5-5.3,6.5-5.3,10.7v283c0,7.4,6,13.4,13.4,13.4c1.2,0,2.5-0.2,3.7-0.5
	c85.3-24.2,134.7-113,110.5-198.3c-15.2-53.5-57-95.3-110.5-110.5C350,147,345.7,147.8,342.3,150.3z"/>
<path d="M310,516.2c-118.2,0-214-95.8-214-214s95.8-214,214-214s214,95.8,214,214C523.9,420.3,428.1,516.1,310,516.2z M310,115
	c-103.4,0-187.3,83.8-187.3,187.3S206.6,489.5,310,489.5s187.3-83.8,187.3-187.3C497.1,198.8,413.4,115.1,310,115z"/>
<path d="M256.5,275.5c-29.5,0-53.5-24-53.5-53.5s24-53.5,53.5-53.5c7.4,0,13.4,6,13.4,13.4s-6,13.4-13.4,13.4
	c-14.8,0-26.8,12-26.8,26.8s12,26.8,26.8,26.8c7.4,0,13.4,6,13.4,13.4C269.9,269.5,263.9,275.5,256.5,275.5z"/>
<path d="M256.5,436c-29.5,0-53.5-24-53.5-53.5c0-29.5,24-53.5,53.5-53.5c7.4,0,13.4,6,13.4,13.4c0,7.4-6,13.4-13.4,13.4
	c-14.8,0-26.8,12-26.8,26.8c0,14.8,12,26.8,26.8,26.8c7.4,0,13.4,6,13.4,13.4C269.9,430,263.9,436,256.5,436z"/>
<path d="M350.1,457.1c-7.4,0-13.4-6-13.4-13.4v-283c0-4.2,2-8.2,5.4-10.7c3.3-2.5,7.7-3.4,11.7-2.2c85.3,24.3,134.7,113,110.5,198.3
	c-15.2,53.5-57,95.2-110.5,110.5C352.6,456.9,351.4,457.1,350.1,457.1z M363.5,179.6v245.1c67.7-29.6,98.6-108.4,69-176.1
	C419,217.8,394.4,193.1,363.5,179.6z"/>
</svg>
