<?xml version="1.0" encoding="utf-8"?>
<!-- Generator: Adobe Illustrator 22.0.1, SVG Export Plug-In . SVG Version: 6.00 Build 0)  -->
<svg version="1.1" id="Layer_1" xmlns="http://www.w3.org/2000/svg" xmlns:xlink="http://www.w3.org/1999/xlink" x="0px" y="0px"
	 viewBox="0 0 620.1 804.8" style="enable-background:new 0 0 620.1 804.8;" xml:space="preserve">
<style type="text/css">
	.st0{fill:#8CC63F;}
	.st1{fill:#FFFFFF;}
	.st2{fill:#009245;}
	.st3{fill:#FCC062;}
	.st4{fill:#FDCD81;}
	.st5{fill:#BD904A;}
	.st6{fill:#FFBE78;}
	.st7{fill:#F7931E;}
	.st8{fill:#A67C52;}
	.st9{fill:#F15A24;}
	.st10{fill:#FF1D25;}
</style>
<path class="st0" d="M617,310c0,169.5-312.4,491.9-312.4,491.9S3,479.5,3,310S140.4,3,310,3S617,140.4,617,310z"/>
<circle class="st1" cx="310" cy="302.2" r="266.8"/>
<ellipse class="st0" cx="308" cy="85.6" rx="36.9" ry="22.2"/>
<ellipse class="st2" cx="308" cy="85.6" rx="36.9" ry="22.2"/>
<path class="st0" d="M308,63.4c-3.9,0-7.6,0.5-11.1,1.1c14.9,2.8,25.8,11.1,25.8,21s-10.9,18.2-25.8,21c3.5,0.7,7.2,1.1,11.1,1.1
	c20.4,0,36.9-9.9,36.9-22.2S328.3,63.4,308,63.4z"/>
<path class="st3" d="M507.3,403.1H285.8l-36.9,29.5L212,403.1H108.6l0,0c0,57.1,46.3,103.4,103.4,103.4h192
	C461,506.4,507.3,460.2,507.3,403.1L507.3,403.1z"/>
<path class="st4" d="M433.5,402.9c0,57-46.3,103.5-103.4,103.5h73.8c57.1,0,103.4-46.5,103.4-103.5H433.5z"/>
<path class="st5" d="M182.4,402.9c0,58.9,46.3,103.5,103.4,103.5H212c-57.1,0-103.4-44.6-103.4-103.5H182.4z"/>
<rect x="116" y="255.4" class="st6" width="383.9" height="110.8"/>
<polygon class="st7" points="499.9,403.1 285.8,403.1 248.9,432.6 212,403.1 116,403.1 116,368.1 499.9,368.9 "/>
<path class="st8" d="M389.6,314.6h84.5c18.4,0,33.3,14.8,33.3,33.2v0c0,18.4-15,33.3-33.3,33.3H149.2c-18.4,0-33.1-15-33.1-33.3v0
	c0-18.4,14.8-33.2,33.1-33.2h18.2"/>
<path d="M474.1,388.7H149.2c-22.4,0-40.7-18.3-40.7-40.9l0,0l0,0l0,0c0,0,0,0,0,0s0,0,0,0c0-22.5,18.3-40.8,40.7-40.8h18.2v15.2
	h-18.2c-14.1,0-25.5,11.5-25.5,25.6c0,14.2,11.4,25.7,25.5,25.7h324.9c14.2,0,25.7-11.5,25.7-25.7c0-14.1-11.5-25.6-25.7-25.6h-84.5
	V307h84.5c22.6,0,40.9,18.3,40.9,40.8C515,370.3,496.6,388.7,474.1,388.7z"/>
<polygon class="st9" points="322.7,292.8 355.9,326 389.2,292.8 499.8,292.8 499.8,270 116.1,270 116.1,292.8 "/>
<polygon class="st7" points="499.8,270 248.9,270 197.2,321.6 145.5,270 116.1,270 116.1,248.1 499.8,248.1 "/>
<path class="st3" d="M507.3,248H108.6l0,0c0-57.1,46.3-103.4,103.4-103.4h192C461,144.7,507.3,190.9,507.3,248L507.3,248z"/>
<path class="st4" d="M403.9,144.6h-66.5c57.1,0,103.4,46.5,103.4,103.5h66.5C507.3,191.1,461,144.6,403.9,144.6z"/>
<path class="st5" d="M212,144.6h66.5c-57.1,0-103.4,44.6-103.4,103.5h-66.5C108.6,189.2,154.9,144.6,212,144.6z"/>
<path d="M403.9,513.8H212c-61.1,0-110.8-49.7-110.8-110.8v-7.4h113.3l34.3,27.5l34.3-27.5h231.5v7.4
	C514.7,464.1,465,513.8,403.9,513.8z M116.3,410.5c3.8,49.5,45.3,88.6,95.7,88.6h192c50.4,0,91.9-39.1,95.7-88.6H288.4l-39.5,31.6
	l-39.5-31.6H116.3L116.3,410.5z"/>
<polygon points="197.2,332.4 142.4,277.6 116.1,277.6 116.1,262.4 148.7,262.4 197.2,310.9 245.7,262.4 499.8,262.4 499.8,277.6 
	252,277.6 "/>
<rect x="116.1" y="285.2" width="29.4" height="15.2"/>
<polygon points="355.9,336.7 319.6,300.3 249.1,300.3 249.1,285.2 325.9,285.2 355.9,315.2 386,285.2 499.8,285.2 499.8,300.3 
	392.3,300.3 "/>
<path d="M403.9,137.3h-88.4v-22.6c21.1-2.3,36.7-14.3,36.7-29.1s-15.6-26.8-36.7-29.1v-7.8h-15.2v7.8c-21.1,2.3-36.7,14.3-36.7,29.1
	s15.6,26.8,36.7,29.1v22.6H212c-61.1,0-110.8,49.7-110.8,110.8v7.4h406.1h7.4V248C514.7,187,465,137.3,403.9,137.3z M278.4,85.6
	c0-7,12.6-14.8,29.5-14.8s29.5,7.8,29.5,14.8c0,7-12.6,14.8-29.5,14.8S278.4,92.6,278.4,85.6z M116.3,240.6
	C120,191.1,161.5,152,212,152h192c50.4,0,91.9,39.1,95.7,88.6L116.3,240.6z"/>
<rect x="315.6" y="78.1" class="st10" width="14.2" height="15.2"/>
<rect x="138" y="218.7" width="55.1" height="15.2"/>
<rect x="200.6" y="218.7" width="21.8" height="15.2"/>
<rect x="278.5" y="218.7" width="80.7" height="15.2"/>
<rect x="153.2" y="351.6" width="29.4" height="15.2"/>
<rect x="182.6" y="336.4" width="14.2" height="15.2"/>
<rect x="241.5" y="351.6" width="44.6" height="15.2"/>
<polygon points="323.2,307 226.3,307 226.3,322.2 285.2,322.2 285.2,328.8 300.4,328.8 300.4,322.2 323.2,322.2 "/>
<rect x="315.6" y="344" width="21.8" height="15.2"/>
<path d="M474.1,307h-84.5v15.2h84.5c6.6,0,12.7,2.5,17.3,6.6h-21V344h29.2c0.2,1.2,0.3,2.5,0.3,3.8c0,14.2-11.5,25.7-25.7,25.7
	h-76.9v-7.6H382v7.6H149.2c-14.1,0-25.5-11.5-25.5-25.7c0-14.1,11.4-25.6,25.5-25.6h18.2V307h-18.2c-22.4,0-40.7,18.3-40.7,40.8
	c0,0,0,0,0,0s0,0,0,0c0,22.5,18.3,40.9,40.7,40.9h324.9c22.6,0,40.9-18.3,40.9-40.9C515,325.3,496.6,307,474.1,307z"/>
<rect x="396.3" y="351.6" width="37" height="15.2"/>
<rect x="298.5" y="417.2" width="111.1" height="15.2"/>
<rect x="423.8" y="417.2" width="21.8" height="15.2"/>
<rect x="286.1" y="447.6" width="37" height="15.2"/>
</svg>
