<?xml version="1.0" encoding="utf-8"?>
<!-- Generator: Adobe Illustrator 22.0.1, SVG Export Plug-In . SVG Version: 6.00 Build 0)  -->
<svg version="1.1" id="Layer_1" xmlns="http://www.w3.org/2000/svg" xmlns:xlink="http://www.w3.org/1999/xlink" x="0px" y="0px"
	 viewBox="0 0 620.1 804.8" style="enable-background:new 0 0 620.1 804.8;" xml:space="preserve">
<style type="text/css">
	.st0{fill:#219BC1;}
	.st1{fill:#FFFFFF;}
	.st2{fill:#D80027;}
</style>
<path class="st0" d="M618.9,310c0,169.5-312.4,491.9-312.4,491.9S4.9,479.5,4.9,310S142.3,3,311.9,3S618.9,140.4,618.9,310z"/>
<circle class="st1" cx="311.9" cy="302.2" r="266.8"/>
<g>
	<g>
		<g>
			<path class="st2" d="M294.3,469.5h-21.5V291.7c-8.8-12.9-16.4-21.5-20.8-24.8c-4.3-3.2-6.7-8.3-6.5-13.7
				c0.3-5.4,3.2-10.3,7.8-13.1l19.5-11.7V172c4.1-1.9,7.8-4.4,11.2-7.3l25.1,41.9l12.3-7.4l-27.3-45.7c5.3-8,8.4-17.6,8.4-27.9
				c0-28.2-22.9-51.1-51.1-51.1c-28.1,0-51.1,22.9-51.1,51.1c0,20.5,12.2,38.1,29.6,46.2v297.5h-21.5c-11.8,0-21.5,9.6-21.5,21.5
				c0,11.8,9.6,21.5,21.5,21.5h85.8c11.8,0,21.5-9.6,21.5-21.5C315.7,479.1,306.1,469.5,294.3,469.5z M228.9,125.8
				c0-12.4,10.1-22.5,22.5-22.5s22.5,10.1,22.5,22.5s-10.1,22.5-22.5,22.5C239,148.3,228.9,138.2,228.9,125.8z"/>
			<path class="st2" d="M524.9,278.4c-4-6.8-12.8-9-19.6-4.9l-1.2,0.7c-2.1-1.6-4.8-2.6-7.6-2.6c-4.4,0.1-8.4,2.5-10.5,6.4
				c-14.6,26.7-39.9,53.3-73,74.4L393,319l-12.2,7.3l20,33.4c-34.2,19.2-69.6,29-100,29.2c-4.4,0-8.4,2.4-10.6,6.3
				c-1.4,2.4-1.7,5.2-1.3,7.9l-1.2,0.8c-6.8,4-9,12.8-4.9,19.6c2.7,4.5,7.4,7,12.3,7c2.5,0,5-0.6,7.3-2l4.6-2.7
				c31.9,24.1,87.6,22.4,137.3-7.4c49.6-29.7,77.5-78,71.3-117.5l4.6-2.7C526.8,294,529,285.2,524.9,278.4z M389.6,424.5
				c-6.8,4.1-15.6,1.9-19.7-4.9c-4.1-6.8-1.8-15.6,4.9-19.7c6.8-4.1,15.6-1.8,19.7,4.9C398.5,411.7,396.3,420.5,389.6,424.5z
				 M432.5,398.8c-6.8,4.1-15.6,1.8-19.7-4.9c-4-6.8-1.9-15.6,4.9-19.7c6.8-4,15.6-1.9,19.7,4.9C441.5,386,439.2,394.8,432.5,398.8z
				 M475.4,373.2c-6.8,4.1-15.6,1.8-19.7-5c-4.1-6.8-1.8-15.6,5-19.6c6.8-4.1,15.6-1.9,19.6,4.9S482.2,369.1,475.4,373.2z"/>
			<path class="st2" d="M260.7,252.3c-0.5,0.3-0.9,0.9-0.9,1.5c0,0.6,0.2,1.2,0.7,1.6c8.3,6.2,20.9,21.9,32.9,42
				c12,20.1,20,38.6,21.5,48.8c0.1,0.6,0.5,1.1,1,1.4c0.2,0.1,0.5,0.2,0.8,0.2c0.3,0,0.7-0.1,0.9-0.3l116.9-70
				c5.2-3.2-3.3-27-19-53.2c-14.6-24.3-30.2-42.2-36.6-42.2c-0.5,0-0.9,0.1-1.3,0.3l0,0L260.7,252.3z"/>
		</g>
	</g>
</g>
</svg>
