<?xml version="1.0" encoding="iso-8859-1"?>
<!-- Generator: Adobe Illustrator 16.0.0, SVG Export Plug-In . SVG Version: 6.00 Build 0)  -->
<!DOCTYPE svg PUBLIC "-//W3C//DTD SVG 1.1//EN" "http://www.w3.org/Graphics/SVG/1.1/DTD/svg11.dtd">
<svg xmlns="http://www.w3.org/2000/svg" xmlns:xlink="http://www.w3.org/1999/xlink" version="1.1" id="Capa_1" x="0px" y="0px" width="512px" height="512px" viewBox="0 0 30.604 30.604" style="enable-background:new 0 0 30.604 30.604;" xml:space="preserve">
<g>
	<g>
		<g>
			<path d="M10.917,27.604h-1.5V15.17c-0.612-0.901-1.146-1.505-1.457-1.736C7.66,13.21,7.49,12.852,7.507,12.476     c0.018-0.379,0.223-0.722,0.547-0.915l1.363-0.816V6.803c0.286-0.133,0.546-0.307,0.785-0.508l1.754,2.932l0.857-0.514     l-1.91-3.192c0.368-0.562,0.586-1.229,0.586-1.949C11.49,1.602,9.887,0,7.917,0C5.949,0,4.345,1.603,4.345,3.573     c0,1.432,0.853,2.662,2.072,3.23v20.8h-1.5c-0.828,0-1.5,0.67-1.5,1.5c0,0.827,0.672,1.5,1.5,1.5h6c0.828,0,1.5-0.673,1.5-1.5     C12.417,28.273,11.746,27.604,10.917,27.604z M6.345,3.573c0-0.867,0.705-1.572,1.572-1.572s1.572,0.705,1.572,1.572     c0,0.867-0.705,1.572-1.572,1.572S6.345,4.439,6.345,3.573z" fill="#D80027"/>
			<path d="M27.044,14.242c-0.282-0.474-0.896-0.627-1.371-0.344l-0.087,0.052c-0.15-0.114-0.334-0.183-0.529-0.179     c-0.308,0.006-0.588,0.178-0.733,0.448c-1.02,1.869-2.791,3.726-5.104,5.199l-1.398-2.337l-0.856,0.513l1.397,2.338     c-2.391,1.343-4.865,2.025-6.991,2.039c-0.308,0.002-0.59,0.168-0.741,0.438c-0.097,0.17-0.122,0.363-0.094,0.55l-0.087,0.054     c-0.474,0.283-0.628,0.897-0.345,1.371c0.188,0.313,0.52,0.487,0.859,0.487c0.175,0,0.352-0.045,0.513-0.143l0.319-0.19     c2.23,1.684,6.127,1.563,9.602-0.514c3.471-2.077,5.418-5.455,4.986-8.216l0.319-0.191C27.174,15.33,27.33,14.715,27.044,14.242z      M17.578,24.457c-0.477,0.284-1.089,0.13-1.374-0.345c-0.284-0.475-0.128-1.091,0.345-1.374c0.477-0.284,1.091-0.129,1.375,0.346     C18.207,23.559,18.051,24.174,17.578,24.457z M20.579,22.662c-0.476,0.284-1.092,0.129-1.374-0.346     c-0.283-0.477-0.13-1.091,0.345-1.375c0.478-0.283,1.09-0.13,1.374,0.346C21.208,21.764,21.052,22.377,20.579,22.662z      M23.581,20.866c-0.475,0.284-1.092,0.129-1.375-0.348c-0.285-0.475-0.129-1.09,0.347-1.372c0.475-0.284,1.089-0.13,1.373,0.345     S24.053,20.582,23.581,20.866z" fill="#D80027"/>
			<path d="M8.567,12.42c-0.036,0.021-0.06,0.06-0.062,0.103s0.017,0.083,0.051,0.109c0.578,0.43,1.459,1.533,2.299,2.935     c0.839,1.404,1.395,2.701,1.5,3.415c0.007,0.041,0.033,0.077,0.072,0.097c0.017,0.008,0.035,0.012,0.054,0.012     c0.022,0,0.046-0.006,0.065-0.018l8.175-4.893c0.364-0.221-0.229-1.885-1.328-3.72c-1.019-1.702-2.11-2.953-2.559-2.953     c-0.035,0-0.066,0.008-0.094,0.023l0,0L8.567,12.42z" fill="#D80027"/>
		</g>
	</g>
</g>
<g>
</g>
<g>
</g>
<g>
</g>
<g>
</g>
<g>
</g>
<g>
</g>
<g>
</g>
<g>
</g>
<g>
</g>
<g>
</g>
<g>
</g>
<g>
</g>
<g>
</g>
<g>
</g>
<g>
</g>
</svg>
