<?xml version="1.0" encoding="utf-8"?>
<!-- Generator: Adobe Illustrator 22.0.1, SVG Export Plug-In . SVG Version: 6.00 Build 0)  -->
<svg version="1.1" id="Layer_1" xmlns="http://www.w3.org/2000/svg" xmlns:xlink="http://www.w3.org/1999/xlink" x="0px" y="0px"
	 viewBox="0 0 620.1 804.8" style="enable-background:new 0 0 620.1 804.8;" xml:space="preserve">
<style type="text/css">
	.st0{fill:#5A36CC;}
	.st1{fill:#FFFFFF;}
	.st2{fill:#F95428;}
	.st3{fill:#F7B239;}
	.st4{fill:#2197D8;}
</style>
<path class="st0" d="M618.9,310c0,169.5-312.4,491.9-312.4,491.9S4.9,479.5,4.9,310S142.3,3,311.9,3S618.9,140.4,618.9,310z"/>
<circle class="st1" cx="311.9" cy="302.2" r="266.8"/>
<path class="st2" d="M522.5,212.6c9.7,24.7-11.8,54.8-11.8,54.8c-3.2-19.3-11.8-27.9-17.2-58s20.4-50.5,20.4-50.5
	C509.6,182.5,517.6,200.3,522.5,212.6z"/>
<path class="st3" d="M463.9,411.1c2.2-10.4,3.3-21.1,3.3-32.1c0-86.4-70.1-156.5-156.5-156.5s-156.5,70.1-156.5,156.5
	c0,11,1.2,21.8,3.3,32.2c3.5,17,9.9,33,18.4,47.4c0,0-63-8.5-72.7-52.5s15-40.8,0-90.3c0,0,16.1,6.2,26.7,15.4
	c2.6,2.2,6.6,0.2,6.2-3.2c-2.7-25.2-2.6-76.6,37-103.5c53.7-36.5,25.8-74.2,25.8-74.2s40.8,27.9,41.9,65.6c0,0,31.2-19.3,29-43
	c0,0,7.2,4.9,15.5,12.3c14.5,12.8,36.1,12.8,50.6,0c8.3-7.4,15.5-12.3,15.5-12.3c-2.1,23.6,29,43,29,43
	c1.1-37.6,41.9-65.6,41.9-65.6s-27.9,37.6,25.8,74.2c39.6,26.9,39.7,78.3,37,103.5c-0.4,3.4,3.6,5.4,6.2,3.2
	c10.6-9.2,26.7-15.4,26.7-15.4c-15,49.4,9.7,46.2,0,90.3c-9.7,44.1-72.7,52.5-72.7,52.5C454.1,444.1,460.4,428.1,463.9,411.1z"/>
<path class="st2" d="M436.4,371c1.8,21.5,25.4,38.6,27.5,40.1c-3.5,17-9.9,33-18.5,47.5c-27.2,46-77.4,76.8-134.7,76.8
	S203.3,504.6,176,458.6c-8.6-14.5-14.9-30.4-18.4-47.4c0,0,25.8-17.7,27.7-40.2c-0.5,12-1.4,63.3,13.7,78.4
	c17.2,17.2,64.5,7.9,48-40.8c0,0,22.6,35,33.9,76.2c3.7,13.4,16,22.7,29.9,22.7h0c13.9,0,26.3-9.3,29.9-22.7
	c11.3-41.2,33.9-76.2,33.9-76.2c-16.5,48.7,30.8,58,48,40.8C437.8,434.3,436.9,383,436.4,371z"/>
<path class="st3" d="M310.7,356.1c0,0,41.3,58.7,0,100C269.4,414.8,310.7,356.1,310.7,356.1z"/>
<g>
	<path class="st2" d="M310.7,86.9c30.6,30.6,0,74.2,0,74.2S280.1,117.5,310.7,86.9z"/>
	<path class="st2" d="M107.6,158.9c0,0,25.8,20.4,20.4,50.5c-5.4,30.1-14,38.7-17.2,58c0,0-21.5-30.1-11.8-54.8
		C103.9,200.3,111.9,182.5,107.6,158.9z"/>
</g>
<path class="st4" d="M310.7,543.5c-29.1,0-57.7-7.7-82.7-22.3c-24.3-14.1-44.7-34.4-59-58.5c-9.2-15.5-15.7-32.3-19.4-49.9
	c-2.3-11.1-3.5-22.5-3.5-33.9c0-90.7,73.8-164.6,164.6-164.6c90.7,0,164.6,73.8,164.6,164.6c0,11.4-1.2,22.7-3.5,33.8l0,0
	c-3.7,17.6-10.2,34.5-19.4,50c-14.3,24.2-34.7,44.4-59,58.5C368.4,535.8,339.8,543.5,310.7,543.5z M310.7,230.5
	c-81.9,0-148.5,66.6-148.5,148.5c0,10.3,1.1,20.6,3.2,30.6c3.3,15.8,9.2,31,17.5,45c12.9,21.8,31.3,40.1,53.2,52.8
	c22.5,13.1,48.3,20.1,74.6,20.1s52-6.9,74.6-20.1c21.9-12.7,40.3-31,53.2-52.8c8.3-14,14.2-29.2,17.5-45.1c0,0,0,0,0,0
	c2.1-10,3.1-20.2,3.1-30.5C459.2,297.1,392.6,230.5,310.7,230.5z"/>
</svg>
