<?xml version="1.0" encoding="iso-8859-1"?>
<!-- Generator: Adobe Illustrator 19.0.0, SVG Export Plug-In . SVG Version: 6.00 Build 0)  -->
<svg version="1.1" id="Layer_1" xmlns="http://www.w3.org/2000/svg" xmlns:xlink="http://www.w3.org/1999/xlink" x="0px" y="0px"
	 viewBox="0 0 512 512" style="enable-background:new 0 0 512 512;" xml:space="preserve">
<path style="fill:#F95428;" d="M493.41,140.992c10.846,27.719-13.257,61.463-13.257,61.463
	c-3.615-21.693-13.257-31.334-19.283-65.079s22.898-56.643,22.898-56.643C478.948,107.247,487.987,127.12,493.41,140.992z"/>
<path style="fill:#F7B239;" d="M427.777,363.512c2.434-11.63,3.712-23.681,3.712-36.034c0-96.919-78.564-175.495-175.483-175.495
	S80.511,230.559,80.511,327.478c0,12.389,1.29,24.489,3.736,36.155c3.977,19.042,11.063,36.95,20.681,53.184
	c0,0-70.671-9.485-81.517-58.896s16.872-45.796,0-101.233c0,0,18.065,6.966,29.936,17.234c2.916,2.507,7.364,0.217,6.954-3.603
	c-3.025-28.285-2.929-85.892,41.445-116.069c60.258-40.975,28.924-83.156,28.924-83.156s45.796,31.334,47.001,73.515
	c0,0,34.95-21.693,32.539-48.206c0,0,8.05,5.496,17.403,13.751c16.258,14.329,40.517,14.329,56.775,0
	c9.352-8.255,17.403-13.751,17.403-13.751c-2.41,26.514,32.539,48.206,32.539,48.206c1.205-42.181,47.001-73.515,47.001-73.515
	s-31.334,42.181,28.924,83.156c44.374,30.177,44.482,87.784,41.445,116.069c-0.41,3.82,4.049,6.11,6.954,3.603
	c11.883-10.268,29.936-17.234,29.936-17.234c-16.872,55.437,10.846,51.822,0,101.233s-81.517,58.896-81.517,58.896
	C416.714,400.547,423.8,382.602,427.777,363.512z"/>
<path style="fill:#F95428;" d="M396.913,318.584c1.988,24.055,28.502,43.265,30.864,44.928
	c-3.977,19.09-11.063,37.035-20.705,53.304c-30.551,51.569-86.771,86.145-151.067,86.145s-120.516-34.576-151.079-86.145
	c-9.617-16.233-16.704-34.142-20.681-53.184c0,0,28.948-19.861,31.033-45.049c-0.506,13.486-1.591,70.972,15.39,87.953
	c19.283,19.283,72.31,8.834,53.834-45.796c0,0,25.381,39.228,38.023,85.422c4.122,15.077,17.945,25.453,33.564,25.453h0.012
	c15.619,0,29.442-10.376,33.564-25.453c12.642-46.194,38.023-85.422,38.023-85.422c-18.475,54.63,34.552,65.079,53.834,45.796
	C398.504,389.556,397.419,332.07,396.913,318.584z"/>
<path style="fill:#F7B239;" d="M256.006,301.88c0,0,46.326,65.826,0,112.152C209.68,367.706,256.006,301.88,256.006,301.88z"/>
<g>
	<path style="fill:#F95428;" d="M256.006,0c34.347,34.347,0,83.156,0,83.156S221.659,34.347,256.006,0z"/>
	<path style="fill:#F95428;" d="M28.231,80.734c0,0,28.924,22.898,22.898,56.642s-15.667,43.386-19.283,65.079
		c0,0-24.103-33.744-13.257-61.463C24.025,127.12,33.051,107.247,28.231,80.734z"/>
</g>
<path style="fill:#2197D8;" d="M256.006,512c-32.627,0-64.695-8.631-92.738-24.961c-27.203-15.842-50.066-38.53-66.116-65.614
	c-10.32-17.418-17.638-36.24-21.753-55.944c-2.606-12.425-3.926-25.213-3.926-38.002c0-101.753,82.781-184.534,184.534-184.534
	c101.746,0,184.522,82.781,184.522,184.534c0,12.761-1.312,25.506-3.902,37.878l0,0c-4.118,19.769-11.445,38.634-21.777,56.069
	c-16.044,27.081-38.904,49.771-66.107,65.612C320.703,503.367,288.634,512,256.006,512z M256.006,161.021
	c-91.785,0-166.457,74.672-166.457,166.457c0,11.545,1.192,23.086,3.543,34.3c3.709,17.762,10.308,34.727,19.61,50.431
	c14.484,24.438,35.115,44.911,59.661,59.207c25.283,14.723,54.206,22.506,83.64,22.506s58.357-7.783,83.638-22.506
	c24.547-14.296,45.174-34.769,59.652-59.207c9.315-15.719,15.92-32.724,19.632-50.541c0.001-0.002,0.001-0.005,0.001-0.008
	c2.336-11.159,3.52-22.659,3.52-34.182C422.451,235.693,347.784,161.021,256.006,161.021z"/>
<g>
</g>
<g>
</g>
<g>
</g>
<g>
</g>
<g>
</g>
<g>
</g>
<g>
</g>
<g>
</g>
<g>
</g>
<g>
</g>
<g>
</g>
<g>
</g>
<g>
</g>
<g>
</g>
<g>
</g>
</svg>
