<?xml version="1.0" encoding="utf-8"?>
<!-- Generator: Adobe Illustrator 22.0.1, SVG Export Plug-In . SVG Version: 6.00 Build 0)  -->
<svg version="1.1" id="Layer_1" xmlns="http://www.w3.org/2000/svg" xmlns:xlink="http://www.w3.org/1999/xlink" x="0px" y="0px"
	 viewBox="0 0 620.1 804.8" style="enable-background:new 0 0 620.1 804.8;" xml:space="preserve">
<style type="text/css">
	.st0{fill:#FFFFFF;}
	.st1{fill:#FFCA19;}
	.st2{opacity:0.1;}
	.st3{fill:#030303;}
	.st4{fill:#77C587;}
</style>
<path d="M618.9,310c0,169.5-312.4,491.9-312.4,491.9S4.9,479.5,4.9,310S142.3,3,311.9,3S618.9,140.4,618.9,310z"/>
<circle class="st0" cx="311.9" cy="302.2" r="266.8"/>
<path class="st1" d="M518.2,262.6c0,100.7-82.4,183.1-183.1,183.1c-14.4,0-27.5-1.3-40.5-5.2l-85,57.5l13.1-90.2
	c-43.2-34-70.6-86.3-70.6-145.2c0-100.7,82.4-183.1,183.1-183.1S518.2,162,518.2,262.6z"/>
<g class="st2">
	<path class="st3" d="M514.3,226c-32.7-28.8-74.5-45.8-121.6-45.8c-100.7,0-183.1,82.4-183.1,183.1c0,13.1,1.3,24.8,3.9,36.6
		c-37.9-34-61.5-82.4-61.5-136c0-100.7,82.4-183.1,183.1-183.1C424.1,79.6,497.3,142.3,514.3,226z"/>
</g>
<path class="st4" d="M222.7,407.8l-2.6,17c-2.6-7.8-5.2-17-6.5-24.8C217.5,402.6,220.1,405.2,222.7,407.8z"/>
<path d="M203.1,508.5c-3.9-2.6-6.5-7.8-6.5-13.1l13.1-83.7c-44.5-37.9-70.6-91.5-70.6-150.4c0-108.5,87.6-196.2,196.2-196.2
	s196.2,87.6,196.2,196.2s-87.6,196.2-196.2,196.2c-13.1,0-26.2-1.3-37.9-3.9l-79.8,53.6C212.2,511.1,207,512.4,203.1,508.5z
	 M335.2,92.6c-94.2,0-170,75.8-170,170c0,52.3,23.5,102,65.4,134.7c3.9,2.6,5.2,7.8,5.2,11.8l-9.2,61.5l60.2-40.5
	c2.6-2.6,6.5-2.6,10.5-1.3c13.1,2.6,24.8,3.9,37.9,3.9c94.2,0,170-75.8,170-170S429.3,92.6,335.2,92.6z"/>
<path d="M335.2,333.3c-7.8,0-13.1-5.2-13.1-13.1V277c0-7.8,5.2-13.1,13.1-13.1c18.3,0,32.7-14.4,32.7-32.7s-14.4-32.7-32.7-32.7
	s-32.7,14.4-32.7,32.7c0,7.8-5.2,13.1-13.1,13.1c-7.8,0-13.1-5.2-13.1-13.1c0-32.7,26.2-58.8,58.8-58.8c32.7,0,58.8,26.2,58.8,58.8
	c0,27.5-19.6,51-45.8,57.5v31.4C348.2,326.7,343,333.3,335.2,333.3z"/>
<path d="M326,367.3c-5.2-5.2-5.2-14.4,0-18.3c5.2-5.2,13.1-5.2,18.3,0c5.2,5.2,5.2,13.1,0,18.3C339.1,373.8,331.2,372.5,326,367.3z"
	/>
</svg>
