<?xml version="1.0" encoding="utf-8"?>
<!-- Generator: Adobe Illustrator 22.0.1, SVG Export Plug-In . SVG Version: 6.00 Build 0)  -->
<svg version="1.1" id="Layer_1" xmlns="http://www.w3.org/2000/svg" xmlns:xlink="http://www.w3.org/1999/xlink" x="0px" y="0px"
	 viewBox="0 0 620.1 804.8" style="enable-background:new 0 0 620.1 804.8;" xml:space="preserve">
<style type="text/css">
	.st0{fill:#00AA89;}
	.st1{fill:#FFFFFF;}
	.st2{fill:#00FFDA;}
</style>
<path class="st0" d="M618.9,310c0,169.5-312.4,491.9-312.4,491.9S4.9,479.5,4.9,310S142.3,3,311.9,3S618.9,140.4,618.9,310z"/>
<circle class="st1" cx="311.9" cy="302.2" r="266.8"/>
<path class="st2" d="M188.1,486.2c-27.7,0-50.2-22.5-50.2-50.2s22.5-50.2,50.2-50.2s50.2,22.5,50.2,50.2S215.8,486.2,188.1,486.2z"
	/>
<path class="st2" d="M347,461.1c-13.9,0-25.1-11.2-25.1-25.1c0-73.8-60-133.8-133.8-133.8c-13.9,0-25.1-11.2-25.1-25.1
	c0-13.9,11.2-25.1,25.1-25.1c49.1,0,95.3,19.1,130.1,53.9c34.7,34.7,53.9,80.9,53.9,130.1C372.1,449.9,360.8,461.1,347,461.1z"/>
<path class="st2" d="M480.8,461.1c-13.9,0-25.1-11.2-25.1-25.1c0-147.6-120-267.6-267.6-267.6c-13.9,0-25.1-11.2-25.1-25.1
	s11.2-25.1,25.1-25.1c42.9,0,84.5,8.4,123.7,25c37.8,16,71.8,38.9,101,68.1c29.2,29.2,52.1,63.2,68.1,101
	c16.6,39.2,25,80.8,25,123.7C505.9,449.9,494.6,461.1,480.8,461.1z"/>
<path d="M188.1,379.6c-31.1,0-56.4,25.3-56.4,56.4s25.3,56.4,56.4,56.4s56.4-25.3,56.4-56.4S219.2,379.6,188.1,379.6z M188.1,479.9
	c-24.2,0-43.9-19.7-43.9-43.9c0-24.2,19.7-43.9,43.9-43.9S232,411.8,232,436C232,460.2,212.3,479.9,188.1,479.9z"/>
<path d="M188.1,245.8c-17.3,0-31.4,14.1-31.4,31.4c0,17.3,14.1,31.4,31.4,31.4c70.3,0,127.5,57.2,127.5,127.5
	c0,17.3,14.1,31.4,31.4,31.4c17.3,0,31.4-14.1,31.4-31.4c0-50.8-19.8-98.6-55.7-134.5C286.7,265.5,238.9,245.8,188.1,245.8z
	 M347,454.8c-10.4,0-18.8-8.4-18.8-18.8c0-77.2-62.8-140.1-140.1-140.1c-10.4,0-18.8-8.4-18.8-18.8c0-10.4,8.4-18.8,18.8-18.8
	c47.5,0,92.1,18.5,125.7,52c33.6,33.6,52,78.2,52,125.7C365.8,446.4,357.4,454.8,347,454.8z"/>
<path d="M486.7,309.9c-16.3-38.6-39.7-73.2-69.4-103c-29.8-29.8-64.4-53.1-103-69.4c-40-16.9-82.4-25.5-126.1-25.5
	c-17.3,0-31.4,14.1-31.4,31.4s14.1,31.4,31.4,31.4c144.1,0,261.3,117.2,261.3,261.3c0,17.3,14.1,31.4,31.4,31.4s31.4-14.1,31.4-31.4
	C512.1,392.3,503.6,349.8,486.7,309.9z M480.8,454.8c-10.4,0-18.8-8.4-18.8-18.8c0-151-122.9-273.9-273.9-273.9
	c-10.4,0-18.8-8.4-18.8-18.8s8.4-18.8,18.8-18.8c42,0,82.8,8.2,121.3,24.5c37.1,15.7,70.4,38.1,99,66.7c28.6,28.6,51.1,61.9,66.7,99
	c16.2,38.4,24.5,79.2,24.5,121.3C499.6,446.4,491.2,454.8,480.8,454.8z"/>
</svg>
